<svg width="22" height="22" viewBox="0 0 22 22" fill="none" xmlns="http://www.w3.org/2000/svg">
<path d="M19.6866 15.1409V17.8255C19.6876 18.0747 19.6366 18.3214 19.5367 18.5497C19.4369 18.7781 19.2905 18.9831 19.1068 19.1515C18.9232 19.32 18.7064 19.4483 18.4703 19.5281C18.2342 19.608 17.984 19.6376 17.7358 19.6152C14.9822 19.316 12.3372 18.3751 10.0132 16.868C7.85112 15.4941 6.01802 13.661 4.64412 11.4989C3.13179 9.16437 2.19064 6.50646 1.89691 3.74047C1.87455 3.49302 1.90396 3.24362 1.98327 3.00815C2.06257 2.77268 2.19004 2.5563 2.35755 2.3728C2.52506 2.18929 2.72895 2.04267 2.95623 1.94228C3.18351 1.84189 3.42921 1.78992 3.67767 1.78969H6.36224C6.79651 1.78542 7.21753 1.9392 7.54681 2.22238C7.87609 2.50556 8.09116 2.89882 8.15194 3.32884C8.26525 4.18796 8.47539 5.0315 8.77834 5.84338C8.89874 6.16367 8.9248 6.51176 8.85343 6.84641C8.78206 7.18105 8.61625 7.48822 8.37566 7.73153L7.23919 8.86799C8.51307 11.1083 10.368 12.9632 12.6083 14.2371L13.7448 13.1007C13.9881 12.8601 14.2953 12.6943 14.6299 12.6229C14.9645 12.5515 15.3126 12.5776 15.6329 12.698C16.4448 13.0009 17.2884 13.2111 18.1475 13.3244C18.5822 13.3857 18.9791 13.6046 19.2629 13.9396C19.5467 14.2745 19.6975 14.7021 19.6866 15.1409Z" stroke="white" stroke-width="1.78971" stroke-linecap="round" stroke-linejoin="round"/>
</svg>
