<svg width="22" height="22" viewBox="0 0 22 22" fill="none" xmlns="http://www.w3.org/2000/svg">
<path d="M7.15901 19.6868C7.65323 19.6868 8.05387 19.2862 8.05387 18.7919C8.05387 18.2977 7.65323 17.8971 7.15901 17.8971C6.6648 17.8971 6.26416 18.2977 6.26416 18.7919C6.26416 19.2862 6.6648 19.6868 7.15901 19.6868Z" stroke="black" stroke-opacity="0.7" stroke-width="1.78971" stroke-linecap="round" stroke-linejoin="round"/>
<path d="M17.0023 19.6868C17.4965 19.6868 17.8971 19.2862 17.8971 18.7919C17.8971 18.2977 17.4965 17.8971 17.0023 17.8971C16.5081 17.8971 16.1074 18.2977 16.1074 18.7919C16.1074 19.2862 16.5081 19.6868 17.0023 19.6868Z" stroke="black" stroke-opacity="0.7" stroke-width="1.78971" stroke-linecap="round" stroke-linejoin="round"/>
<path d="M1.83447 1.83444H3.62418L6.00449 12.9485C6.09181 13.3556 6.31829 13.7194 6.64495 13.9775C6.97161 14.2356 7.37801 14.3717 7.7942 14.3624H16.5459C16.9532 14.3617 17.3481 14.2222 17.6654 13.9667C17.9826 13.7113 18.2033 13.3553 18.2908 12.9575L19.7674 6.30872H4.58168" stroke="black" stroke-opacity="0.7" stroke-width="1.78971" stroke-linecap="round" stroke-linejoin="round"/>
</svg>
