<svg width="22" height="22" viewBox="0 0 22 22" fill="none" xmlns="http://www.w3.org/2000/svg">
<path d="M17.8973 8.94854C17.8973 13.4165 12.9407 18.0698 11.2762 19.5069C11.1212 19.6235 10.9324 19.6866 10.7384 19.6866C10.5444 19.6866 10.3557 19.6235 10.2006 19.5069C8.53619 18.0698 3.57959 13.4165 3.57959 8.94854C3.57959 7.0499 4.33382 5.22902 5.67636 3.88648C7.01891 2.54394 8.83978 1.7897 10.7384 1.7897C12.6371 1.7897 14.4579 2.54394 15.8005 3.88648C17.143 5.22902 17.8973 7.0499 17.8973 8.94854Z" stroke="#FDC700" stroke-width="1.78971" stroke-linecap="round" stroke-linejoin="round"/>
<path d="M10.7383 11.633C12.2209 11.633 13.4228 10.4311 13.4228 8.94845C13.4228 7.46581 12.2209 6.26389 10.7383 6.26389C9.25563 6.26389 8.05371 7.46581 8.05371 8.94845C8.05371 10.4311 9.25563 11.633 10.7383 11.633Z" stroke="#FDC700" stroke-width="1.78971" stroke-linecap="round" stroke-linejoin="round"/>
</svg>
